<svg version="1.1" id="Layer_1" xmlns="http://www.w3.org/2000/svg" xmlns:xlink="http://www.w3.org/1999/xlink" x="0px" y="0px"
	 width="100%" viewBox="0 0 1024 544" enable-background="new 0 0 1024 544" xml:space="preserve">
<path fill="#ffffff" opacity="1.000000" stroke="none" 
	d="
M687.854492,272.472717 
	C689.086853,314.010406 663.797668,347.316193 629.829529,355.771637 
	C615.532349,359.330505 601.476196,358.612030 587.559631,353.955261 
	C586.140320,353.480316 584.716003,353.017212 583.278015,352.604248 
	C582.994934,352.522919 582.638245,352.698029 582.171936,352.780182 
	C580.356262,354.416229 580.963440,356.719208 580.921753,358.782562 
	C580.800598,364.777649 580.741333,370.777496 580.835754,376.772644 
	C580.965820,385.022064 576.809265,390.456390 570.018250,394.550781 
	C558.976562,401.207977 546.799500,404.592194 534.328430,406.848175 
	C495.463104,413.878876 456.828278,413.385773 418.688782,402.175598 
	C410.999390,399.915497 403.650909,396.775360 397.305359,391.645081 
	C392.878601,388.066193 390.624023,383.693207 390.631165,377.846893 
	C390.713196,310.703796 390.746887,243.560471 390.610291,176.417587 
	C390.594360,168.581436 394.446533,163.548370 400.449341,159.639389 
	C410.560852,153.054794 422.100983,150.099625 433.704529,147.966736 
	C471.106934,141.091705 508.486908,141.187607 545.674377,149.768677 
	C551.678528,151.154114 557.544922,153.065155 563.191467,155.567307 
	C577.390869,161.859604 580.880249,167.349335 580.604614,182.839249 
	C580.513794,187.939072 580.163269,193.061249 581.719849,198.395676 
	C586.251221,197.004364 590.456604,195.554504 594.745789,194.421631 
	C624.619690,186.531326 658.904236,200.303909 675.109253,226.585236 
	C676.293518,228.505875 676.969238,230.109970 674.760803,231.732498 
	C668.201477,236.551727 661.669861,241.408752 655.041382,246.314667 
	C651.515991,244.174622 650.075378,240.656250 647.808716,237.901886 
	C629.962769,216.216080 598.579102,214.470261 578.839722,234.143585 
	C561.217407,251.706924 557.286560,281.772797 569.483826,303.561981 
	C578.221497,319.171051 591.290833,328.204010 609.063110,329.445953 
	C631.903137,331.042023 652.006592,314.390869 655.608093,295.226196 
	C650.556152,295.226196 645.605042,295.222717 640.653992,295.226959 
	C632.323608,295.234039 623.992554,295.191345 615.663147,295.285828 
	C612.773560,295.318604 610.767700,294.758698 610.809875,291.271179 
	C610.892578,284.441254 610.876343,277.609589 610.836975,270.779022 
	C610.821106,268.035645 612.120972,266.877106 614.801453,266.879974 
	C637.626648,266.904358 660.452026,266.948242 683.276855,266.855011 
	C687.125916,266.839294 687.481201,269.269806 687.854492,272.472717 
M419.048889,180.423965 
	C425.424072,182.942337 432.083679,184.473969 438.792664,185.646957 
	C470.385559,191.170700 502.017853,191.264282 533.583313,185.529327 
	C542.734314,183.866745 551.906860,181.822983 559.949951,176.733292 
	C564.858032,173.627426 564.829285,170.304321 559.960815,167.216919 
	C556.430481,164.978195 552.544678,163.462112 548.561035,162.211258 
	C534.506897,157.798187 520.047180,155.963898 505.393616,154.997528 
	C479.667328,153.300919 454.192078,154.714890 429.025696,160.444046 
	C422.529999,161.922821 416.103577,163.831665 410.572937,167.770584 
	C406.558289,170.629822 406.555176,173.043732 410.360931,176.074692 
	C412.735291,177.965683 415.490540,179.147186 419.048889,180.423965 
z"/>
</svg>